<svg xmlns="http://www.w3.org/2000/svg" width="24" height="24" fill="none"><path fill="#1788FE" d="M12 24c6.627 0 12-5.373 12-12S18.627 0 12 0 0 5.373 0 12s5.373 12 12 12Z"/><path fill="#EFEFEF" d="m15.182 19.017-2.2-2.927a1.22 1.22 0 1 1 1.95-1.469l2.2 2.926a1.22 1.22 0 0 1-1.947 1.47h-.003Zm-7.973.24a1.22 1.22 0 0 1-.241-1.71l2.2-2.926a1.22 1.22 0 1 1 1.951 1.47l-2.2 2.925a1.207 1.207 0 0 1-.976.485c-.265 0-.521-.085-.731-.244h-.003Zm7-7.65a1.22 1.22 0 0 1 .812-1.524l3.499-1.07a1.22 1.22 0 1 1 .713 2.335l-3.5 1.07a1.22 1.22 0 0 1-1.524-.81Zm-5.84.81-3.498-1.07a1.22 1.22 0 1 1 .713-2.335l3.5 1.074a1.22 1.22 0 1 1-.714 2.335v-.003Zm2.268-3.535V5.218c0-.673.546-1.219 1.217-1.222.673 0 1.222.546 1.222 1.222v3.664c0 .674-.549 1.216-1.222 1.216-.67 0-1.216-.546-1.22-1.216h.003Z"/></svg>