<svg xmlns="http://www.w3.org/2000/svg" width="24" height="25" fill="none"><path fill="#FEC31B" d="M11.906 0C5.94 0 1 4.314 0 9.995c.009.375.107.822.482.786.652-.054.983-.84 1.894-1.581.91-.741 2.34-1.75 3.52-2.314.883-.42 1.142-.625 1.276-.902a2.67 2.67 0 0 1 2.671-2.536c1.438 0 2.68 1.197 2.68 2.68a2.676 2.676 0 0 1-4.6 1.866.64.64 0 0 0-.447 0c-.429.197-1.858 1.527-2.581 2.581-.724 1.054-1.724 2.501-2.278 4.163-.554 1.661-.822 3.876 0 4.832s1.617.268 1.93 0c.303-.268 1.562-2.412 2.83-3.555 1.27-1.143 3.064-2.653 4.708-3.394 1.643-.742 2.93-1.117 3.18-1.313.223-.179.294-.25.384-.545a2.678 2.678 0 0 1 5.314.473 2.676 2.676 0 0 1-2.68 2.68c-.66 0-1.25-.25-1.723-.643-.215-.08-.536-.161-.84-.036-.482.206-2.813 1.456-4.34 3.385-1.528 1.93-2.707 4.145-2.85 5.261-.134 1.01.143 1.849 1.206 2.117.696.125 1.42.205 2.152.205 6.681 0 12.103-5.412 12.103-12.102S18.587 0 11.906 0Z"/></svg>