<svg xmlns="http://www.w3.org/2000/svg" width="24" height="24" fill="none"><path fill="#E02028" d="M12.002 0C5.375.007.007 5.375 0 12.002c.007 6.623 5.375 11.994 12.002 12.002 6.623-.008 11.994-5.375 12.002-12.002C23.992 5.375 18.625.007 12.002 0Z"/><path fill="#EFEFEF" d="M5.099 12.047c0-.474.048-.947.149-1.41a11.648 11.648 0 0 1 3.943-7.35 9.876 9.876 0 0 1 7.4-2.482 6.127 6.127 0 0 0-2.547 2.132 4.476 4.476 0 0 0-.708 2.58 6.71 6.71 0 0 1 5.177 6.533 6.706 6.706 0 0 1-13.41 0l-.004-.003Z"/></svg>